<svg width="1162px" height="565px" viewBox="0 0 1162 565" version="1.1" xmlns="http://www.w3.org/2000/svg" xmlns:xlink="http://www.w3.org/1999/xlink">
    <g id="Page-1" stroke="none" stroke-width="1" fill="none" fill-rule="evenodd">
        <g id="Group-3" transform="translate(-59.000000, -148.000000)">
            <g id="Group-2" transform="translate(59.000000, 147.000000)">
                <g id="Domain" transform="translate(332.000000, 415.000000)">
                    <g id="Group">
                        <rect id="Rectangle" stroke="#979797" fill="#DFDFDF" x="0.5" y="0.5" width="499" height="150"></rect>
                        <text id="domain.d.ts" font-family="Helvetica" font-size="12" font-weight="normal" fill="#000000">
                            <tspan x="11.71875" y="17.795">domain.d.ts</tspan>
                        </text>
                    </g>
                    <text id="interface-User-{-//" font-family="Menlo-Regular, Menlo" font-size="12" font-weight="normal" fill="#000000">
                        <tspan x="12" y="38">interface User {</tspan>
                        <tspan x="12" y="52">  // …</tspan>
                        <tspan x="12" y="66">}</tspan>
                        <tspan x="12" y="80"></tspan>
                        <tspan x="12" y="94">interface Message {</tspan>
                        <tspan x="12" y="108">  // …</tspan>
                        <tspan x="12" y="122">}</tspan>
                    </text>
                </g>
                <g id="UI" transform="translate(0.000000, 106.000000)">
                    <g id="Group">
                        <rect id="Rectangle" stroke="#979797" fill="#DFDFDF" x="0.5" y="0.5" width="499" height="150"></rect>
                        <text id="Component.tsx" font-family="Helvetica" font-size="12" font-weight="normal" fill="#000000">
                            <tspan x="11.71875" y="16.08">Component.tsx</tspan>
                        </text>
                    </g>
                    <text id="interface-Props-{-us" font-family="Menlo-Regular, Menlo" font-size="12" font-weight="normal" fill="#000000">
                        <tspan x="13" y="52">interface Props {</tspan>
                        <tspan x="13" y="66">  user: User;</tspan>
                        <tspan x="13" y="80">  messages: Message[];</tspan>
                        <tspan x="13" y="94">  // …</tspan>
                        <tspan x="13" y="108">}</tspan>
                    </text>
                </g>
                <g id="Store" transform="translate(662.000000, 106.000000)">
                    <g id="Group">
                        <g>
                            <rect id="Rectangle" stroke="#979797" fill="#DFDFDF" x="0.5" y="0.5" width="499" height="150"></rect>
                            <text id="Component.tsx" font-family="Helvetica" font-size="12" font-weight="normal" fill="#000000">
                                <tspan x="11.71875" y="16.08">Store.ts</tspan>
                            </text>
                        </g>
                    </g>
                    <g id="const-reducer:-Reduc-2" transform="translate(19.000000, 55.000000)" fill="#000000" font-family="Menlo-Regular, Menlo" font-size="12" font-weight="normal">
                        <text id="const-reducer:-Reduc">
                            <tspan x="0" y="11">const reducer: Reducer&lt;User, UserAction&gt; = (state, action) =&gt; {</tspan>
                            <tspan x="0" y="25">  // ..</tspan>
                            <tspan x="0" y="39">};</tspan>
                        </text>
                    </g>
                </g>
                <g id="Static" transform="translate(209.000000, 257.000000)" fill="#222222" fill-rule="nonzero">
                    <g id="path/S" transform="translate(70.000000, 79.000000) rotate(90.000000) translate(-70.000000, -79.000000) translate(-9.000000, 9.000000)">
                        <path id="Path" d="M8.5,139.500002 L13,139.500002 C13.2761424,139.500002 13.5,139.72386 13.5,140.000002 C13.5,140.276145 13.2761424,140.500002 13,140.500002 L8.5,140.500002 L8.5,143.963025 C8.5,144.04637 8.48059515,144.12857 8.4433222,144.203116 C8.31072358,144.468313 7.98824633,144.575805 7.72304909,144.443207 L-0.203113559,140.480125 C-0.307010655,140.428177 -0.391256044,140.343932 -0.443204593,140.240034 C-0.575803209,139.974837 -0.468310792,139.65236 -0.203113559,139.519761 L7.72304909,135.55668 C7.79759501,135.519407 7.87979527,135.500002 7.96314013,135.500002 C8.25963965,135.500002 8.5,135.740363 8.5,136.036862 L8.5,139.500002 Z M18,140.500002 C17.7238576,140.500002 17.5,140.276145 17.5,140.000002 C17.5,139.72386 17.7238576,139.500002 18,139.500002 L23,139.500002 C23.2761424,139.500002 23.5,139.72386 23.5,140.000002 C23.5,140.276145 23.2761424,140.500002 23,140.500002 L18,140.500002 Z M28,140.500002 C27.7238576,140.500002 27.5,140.276145 27.5,140.000002 C27.5,139.72386 27.7238576,139.500002 28,139.500002 L33,139.500002 C33.2761424,139.500002 33.5,139.72386 33.5,140.000002 C33.5,140.276145 33.2761424,140.500002 33,140.500002 L28,140.500002 Z M38,140.500002 C37.7238576,140.500002 37.5,140.276145 37.5,140.000002 C37.5,139.72386 37.7238576,139.500002 38,139.500002 L43,139.500002 C43.2761424,139.500002 43.5,139.72386 43.5,140.000002 C43.5,140.276145 43.2761424,140.500002 43,140.500002 L38,140.500002 Z M48,140.500002 C47.7238576,140.500002 47.5,140.276145 47.5,140.000002 C47.5,139.72386 47.7238576,139.500002 48,139.500002 L53,139.500002 C53.2761424,139.500002 53.5,139.72386 53.5,140.000002 C53.5,140.276145 53.2761424,140.500002 53,140.500002 L48,140.500002 Z M58,140.500002 C57.7238576,140.500002 57.5,140.276145 57.5,140.000002 C57.5,139.72386 57.7238576,139.500002 58,139.500002 L59.9955994,139.500002 C60.9804757,139.500002 61.9560228,139.427062 62.9168831,139.282817 C63.1899655,139.241821 63.4445759,139.429965 63.4855714,139.703047 C63.5265668,139.97613 63.3384232,140.23074 63.0653409,140.271736 C62.0553799,140.423352 61.03021,140.500002 59.9955994,140.500002 L58,140.500002 Z M68.0347751,138.864334 C67.7807679,138.972662 67.4870372,138.854565 67.3787091,138.600558 C67.2703811,138.346551 67.3884774,138.05282 67.6424846,137.944492 C69.1436498,137.304281 70.5575775,136.477238 71.8521968,135.485051 C72.0713741,135.317076 72.3852238,135.358583 72.5531998,135.57776 C72.7211757,135.796937 72.6796687,136.110787 72.4604914,136.278763 C71.0996313,137.321716 69.6131689,138.191186 68.0347751,138.864334 Z M76.0818545,132.714619 C75.9104065,132.931091 75.595935,132.967591 75.3794629,132.796143 C75.1629908,132.624695 75.1264915,132.310223 75.2979395,132.093751 C76.3106574,130.815082 77.1601471,129.414586 77.8241871,127.924324 C77.9365796,127.672089 78.2321686,127.558724 78.4844037,127.671116 C78.7366388,127.783509 78.8500037,128.079098 78.7376113,128.331333 C78.0394193,129.898241 77.1463696,131.370551 76.0818545,132.714619 Z M80.2314987,123.341899 C80.1867599,123.614393 79.9295917,123.799025 79.6570976,123.754287 C79.3846035,123.709548 79.1999714,123.45238 79.2447103,123.179885 C79.413537,122.151601 79.5003563,121.105718 79.5030967,120.050195 L79.5031654,118.21882 C79.5031758,117.942677 79.7270418,117.718828 80.0031842,117.718838 C80.2793266,117.718849 80.5031758,117.942715 80.5031654,118.218857 L80.503095,120.051512 C80.5002142,121.161773 80.4089697,122.260965 80.2314987,123.341899 Z M80.5031654,113.218838 C80.5031654,113.494981 80.2793078,113.718838 80.0031654,113.718838 C79.7270231,113.718838 79.5031654,113.494981 79.5031654,113.218838 L79.5031654,108.218838 C79.5031654,107.942696 79.7270231,107.718838 80.0031654,107.718838 C80.2793078,107.718838 80.5031654,107.942696 80.5031654,108.218838 L80.5031654,113.218838 Z M80.5031654,103.218838 C80.5031654,103.494981 80.2793078,103.718838 80.0031654,103.718838 C79.7270231,103.718838 79.5031654,103.494981 79.5031654,103.218838 L79.5031654,98.2188385 C79.5031654,97.9426961 79.7270231,97.7188385 80.0031654,97.7188385 C80.2793078,97.7188385 80.5031654,97.9426961 80.5031654,98.2188385 L80.5031654,103.218838 Z M80.5031654,93.2188385 C80.5031654,93.4949808 80.2793078,93.7188385 80.0031654,93.7188385 C79.7270231,93.7188385 79.5031654,93.4949808 79.5031654,93.2188385 L79.5031654,88.2188385 C79.5031654,87.9426961 79.7270231,87.7188385 80.0031654,87.7188385 C80.2793078,87.7188385 80.5031654,87.9426961 80.5031654,88.2188385 L80.5031654,93.2188385 Z M80.5031654,83.2188385 C80.5031654,83.4949808 80.2793078,83.7188385 80.0031654,83.7188385 C79.7270231,83.7188385 79.5031654,83.4949808 79.5031654,83.2188385 L79.5031654,78.2188385 C79.5031654,77.9426961 79.7270231,77.7188385 80.0031654,77.7188385 C80.2793078,77.7188385 80.5031654,77.9426961 80.5031654,78.2188385 L80.5031654,83.2188385 Z M80.5031654,73.2188385 C80.5031654,73.4949808 80.2793078,73.7188385 80.0031654,73.7188385 C79.7270231,73.7188385 79.5031654,73.4949808 79.5031654,73.2188385 L79.5031654,68.2188385 C79.5031654,67.9426961 79.7270231,67.7188385 80.0031654,67.7188385 C80.2793078,67.7188385 80.5031654,67.9426961 80.5031654,68.2188385 L80.5031654,73.2188385 Z M80.5031654,63.2188385 C80.5031654,63.4949808 80.2793078,63.7188385 80.0031654,63.7188385 C79.7270231,63.7188385 79.5031654,63.4949808 79.5031654,63.2188385 L79.5031654,58.2188385 C79.5031654,57.9426961 79.7270231,57.7188385 80.0031654,57.7188385 C80.2793078,57.7188385 80.5031654,57.9426961 80.5031654,58.2188385 L80.5031654,63.2188385 Z M80.5031654,53.2188385 C80.5031654,53.4949808 80.2793078,53.7188385 80.0031654,53.7188385 C79.7270231,53.7188385 79.5031654,53.4949808 79.5031654,53.2188385 L79.5031654,48.2188385 C79.5031654,47.9426961 79.7270231,47.7188385 80.0031654,47.7188385 C80.2793078,47.7188385 80.5031654,47.9426961 80.5031654,48.2188385 L80.5031654,53.2188385 Z M80.5031654,43.2188385 C80.5031654,43.4949808 80.2793078,43.7188385 80.0031654,43.7188385 C79.7270231,43.7188385 79.5031654,43.4949808 79.5031654,43.2188385 L79.5031654,38.2188385 C79.5031654,37.9426961 79.7270231,37.7188385 80.0031654,37.7188385 C80.2793078,37.7188385 80.5031654,37.9426961 80.5031654,38.2188385 L80.5031654,43.2188385 Z M80.5031654,33.2188385 C80.5031654,33.4949808 80.2793078,33.7188385 80.0031654,33.7188385 C79.7270231,33.7188385 79.5031654,33.4949808 79.5031654,33.2188385 L79.5031654,28.2188385 C79.5031654,27.9426961 79.7270231,27.7188385 80.0031654,27.7188385 C80.2793078,27.7188385 80.5031654,27.9426961 80.5031654,28.2188385 L80.5031654,33.2188385 Z M80.5031654,23.2188385 C80.5031654,23.4949808 80.2793078,23.7188385 80.0031654,23.7188385 C79.7270231,23.7188385 79.5031654,23.4949808 79.5031654,23.2188385 L79.5031654,20.0027829 C79.5031654,19.3906607 79.5299797,18.7817399 79.583293,18.1771883 C79.6075509,17.9021135 79.850208,17.6987862 80.1252828,17.7230441 C80.4003577,17.747302 80.603685,17.9899591 80.5794271,18.2650339 C80.528689,18.8403837 80.5031654,19.4199943 80.5031654,20.0027829 L80.5031654,23.2188385 Z M81.6182349,13.4837618 C81.5260177,13.7440512 81.2402546,13.8803007 80.9799651,13.7880834 C80.7196757,13.6958662 80.5834262,13.4101031 80.6756434,13.1498137 C81.2491868,11.5309481 82.0244691,9.99357743 82.9808604,8.57131016 C83.1349515,8.34215839 83.4456313,8.28130971 83.6747831,8.43540084 C83.9039348,8.58949197 83.9647835,8.90017173 83.8106924,9.1293235 C82.9009875,10.4821624 82.1636509,11.9442876 81.6182349,13.4837618 Z M87.0621895,5.41051442 C86.8556864,5.59384759 86.5396616,5.5750646 86.3563284,5.36856143 C86.1729952,5.16205826 86.1917782,4.84603346 86.3982814,4.66270029 C87.6805436,3.52431002 89.1005388,2.54980618 90.6249749,1.76445444 C90.8704561,1.63798862 91.1719787,1.73446962 91.2984445,1.9799508 C91.4249104,2.22543197 91.3284293,2.52695459 91.0829482,2.65342041 C89.6329581,3.40041942 88.2821179,4.32746405 87.0621895,5.41051442 Z M95.6384075,0.989451362 C95.3691988,1.0509438 95.1011126,0.882556549 95.0396202,0.61334791 C94.9781278,0.344139271 95.146515,0.076053079 95.4157237,0.0145606413 C96.8864009,-0.321370356 98.3985134,-0.4949146 99.934272,-0.499892506 L100.564712,-0.499999993 C100.840855,-0.500047073 101.064751,-0.276227618 101.064798,-8.52471018e-05 C101.064845,0.276057124 100.841025,0.499952912 100.564883,0.499999993 L99.9359786,0.500104857 C98.4757285,0.50484026 97.0372079,0.669938403 95.6384075,0.989451362 Z M105.564798,0.5 C105.288655,0.5 105.064798,0.276142375 105.064798,0 C105.064798,-0.276142375 105.288655,-0.5 105.564798,-0.5 L110.564798,-0.5 C110.84094,-0.5 111.064798,-0.276142375 111.064798,0 C111.064798,0.276142375 110.84094,0.5 110.564798,0.5 L105.564798,0.5 Z M115.564798,0.5 C115.288655,0.5 115.064798,0.276142375 115.064798,0 C115.064798,-0.276142375 115.288655,-0.5 115.564798,-0.5 L120.564798,-0.5 C120.84094,-0.5 121.064798,-0.276142375 121.064798,0 C121.064798,0.276142375 120.84094,0.5 120.564798,0.5 L115.564798,0.5 Z M125.564798,0.5 C125.288655,0.5 125.064798,0.276142375 125.064798,0 C125.064798,-0.276142375 125.288655,-0.5 125.564798,-0.5 L130.564798,-0.5 C130.84094,-0.5 131.064798,-0.276142375 131.064798,0 C131.064798,0.276142375 130.84094,0.5 130.564798,0.5 L125.564798,0.5 Z M135.564798,0.5 C135.288655,0.5 135.064798,0.276142375 135.064798,0 C135.064798,-0.276142375 135.288655,-0.5 135.564798,-0.5 L140.564798,-0.5 C140.84094,-0.5 141.064798,-0.276142375 141.064798,0 C141.064798,0.276142375 140.84094,0.5 140.564798,0.5 L135.564798,0.5 Z M145.564798,0.5 C145.288655,0.5 145.064798,0.276142375 145.064798,0 C145.064798,-0.276142375 145.288655,-0.5 145.564798,-0.5 L150.564798,-0.5 C150.84094,-0.5 151.064798,-0.276142375 151.064798,0 C151.064798,0.276142375 150.84094,0.5 150.564798,0.5 L145.564798,0.5 Z M155.564798,0.5 C155.288655,0.5 155.064798,0.276142375 155.064798,0 C155.064798,-0.276142375 155.288655,-0.5 155.564798,-0.5 L158,-0.5 C158.276142,-0.5 158.5,-0.276142375 158.5,0 C158.5,0.276142375 158.276142,0.5 158,0.5 L155.564798,0.5 Z"></path>
                    </g>
                    <g id="path/S-Copy" transform="translate(640.000000, 79.000000) scale(-1, 1) rotate(90.000000) translate(-640.000000, -79.000000) translate(561.000000, 9.000000)">
                        <path id="Path" d="M8.5,139.500002 L13,139.500002 C13.2761424,139.500002 13.5,139.72386 13.5,140.000002 C13.5,140.276145 13.2761424,140.500002 13,140.500002 L8.5,140.500002 L8.5,143.963025 C8.5,144.04637 8.48059515,144.12857 8.4433222,144.203116 C8.31072358,144.468313 7.98824633,144.575805 7.72304909,144.443207 L-0.203113559,140.480125 C-0.307010655,140.428177 -0.391256044,140.343932 -0.443204593,140.240034 C-0.575803209,139.974837 -0.468310792,139.65236 -0.203113559,139.519761 L7.72304909,135.55668 C7.79759501,135.519407 7.87979527,135.500002 7.96314013,135.500002 C8.25963965,135.500002 8.5,135.740363 8.5,136.036862 L8.5,139.500002 Z M18,140.500002 C17.7238576,140.500002 17.5,140.276145 17.5,140.000002 C17.5,139.72386 17.7238576,139.500002 18,139.500002 L23,139.500002 C23.2761424,139.500002 23.5,139.72386 23.5,140.000002 C23.5,140.276145 23.2761424,140.500002 23,140.500002 L18,140.500002 Z M28,140.500002 C27.7238576,140.500002 27.5,140.276145 27.5,140.000002 C27.5,139.72386 27.7238576,139.500002 28,139.500002 L33,139.500002 C33.2761424,139.500002 33.5,139.72386 33.5,140.000002 C33.5,140.276145 33.2761424,140.500002 33,140.500002 L28,140.500002 Z M38,140.500002 C37.7238576,140.500002 37.5,140.276145 37.5,140.000002 C37.5,139.72386 37.7238576,139.500002 38,139.500002 L43,139.500002 C43.2761424,139.500002 43.5,139.72386 43.5,140.000002 C43.5,140.276145 43.2761424,140.500002 43,140.500002 L38,140.500002 Z M48,140.500002 C47.7238576,140.500002 47.5,140.276145 47.5,140.000002 C47.5,139.72386 47.7238576,139.500002 48,139.500002 L53,139.500002 C53.2761424,139.500002 53.5,139.72386 53.5,140.000002 C53.5,140.276145 53.2761424,140.500002 53,140.500002 L48,140.500002 Z M58,140.500002 C57.7238576,140.500002 57.5,140.276145 57.5,140.000002 C57.5,139.72386 57.7238576,139.500002 58,139.500002 L59.9955994,139.500002 C60.9804757,139.500002 61.9560228,139.427062 62.9168831,139.282817 C63.1899655,139.241821 63.4445759,139.429965 63.4855714,139.703047 C63.5265668,139.97613 63.3384232,140.23074 63.0653409,140.271736 C62.0553799,140.423352 61.03021,140.500002 59.9955994,140.500002 L58,140.500002 Z M68.0347751,138.864334 C67.7807679,138.972662 67.4870372,138.854565 67.3787091,138.600558 C67.2703811,138.346551 67.3884774,138.05282 67.6424846,137.944492 C69.1436498,137.304281 70.5575775,136.477238 71.8521968,135.485051 C72.0713741,135.317076 72.3852238,135.358583 72.5531998,135.57776 C72.7211757,135.796937 72.6796687,136.110787 72.4604914,136.278763 C71.0996313,137.321716 69.6131689,138.191186 68.0347751,138.864334 Z M76.0818545,132.714619 C75.9104065,132.931091 75.595935,132.967591 75.3794629,132.796143 C75.1629908,132.624695 75.1264915,132.310223 75.2979395,132.093751 C76.3106574,130.815082 77.1601471,129.414586 77.8241871,127.924324 C77.9365796,127.672089 78.2321686,127.558724 78.4844037,127.671116 C78.7366388,127.783509 78.8500037,128.079098 78.7376113,128.331333 C78.0394193,129.898241 77.1463696,131.370551 76.0818545,132.714619 Z M80.2314987,123.341899 C80.1867599,123.614393 79.9295917,123.799025 79.6570976,123.754287 C79.3846035,123.709548 79.1999714,123.45238 79.2447103,123.179885 C79.413537,122.151601 79.5003563,121.105718 79.5030967,120.050195 L79.5031654,118.21882 C79.5031758,117.942677 79.7270418,117.718828 80.0031842,117.718838 C80.2793266,117.718849 80.5031758,117.942715 80.5031654,118.218857 L80.503095,120.051512 C80.5002142,121.161773 80.4089697,122.260965 80.2314987,123.341899 Z M80.5031654,113.218838 C80.5031654,113.494981 80.2793078,113.718838 80.0031654,113.718838 C79.7270231,113.718838 79.5031654,113.494981 79.5031654,113.218838 L79.5031654,108.218838 C79.5031654,107.942696 79.7270231,107.718838 80.0031654,107.718838 C80.2793078,107.718838 80.5031654,107.942696 80.5031654,108.218838 L80.5031654,113.218838 Z M80.5031654,103.218838 C80.5031654,103.494981 80.2793078,103.718838 80.0031654,103.718838 C79.7270231,103.718838 79.5031654,103.494981 79.5031654,103.218838 L79.5031654,98.2188385 C79.5031654,97.9426961 79.7270231,97.7188385 80.0031654,97.7188385 C80.2793078,97.7188385 80.5031654,97.9426961 80.5031654,98.2188385 L80.5031654,103.218838 Z M80.5031654,93.2188385 C80.5031654,93.4949808 80.2793078,93.7188385 80.0031654,93.7188385 C79.7270231,93.7188385 79.5031654,93.4949808 79.5031654,93.2188385 L79.5031654,88.2188385 C79.5031654,87.9426961 79.7270231,87.7188385 80.0031654,87.7188385 C80.2793078,87.7188385 80.5031654,87.9426961 80.5031654,88.2188385 L80.5031654,93.2188385 Z M80.5031654,83.2188385 C80.5031654,83.4949808 80.2793078,83.7188385 80.0031654,83.7188385 C79.7270231,83.7188385 79.5031654,83.4949808 79.5031654,83.2188385 L79.5031654,78.2188385 C79.5031654,77.9426961 79.7270231,77.7188385 80.0031654,77.7188385 C80.2793078,77.7188385 80.5031654,77.9426961 80.5031654,78.2188385 L80.5031654,83.2188385 Z M80.5031654,73.2188385 C80.5031654,73.4949808 80.2793078,73.7188385 80.0031654,73.7188385 C79.7270231,73.7188385 79.5031654,73.4949808 79.5031654,73.2188385 L79.5031654,68.2188385 C79.5031654,67.9426961 79.7270231,67.7188385 80.0031654,67.7188385 C80.2793078,67.7188385 80.5031654,67.9426961 80.5031654,68.2188385 L80.5031654,73.2188385 Z M80.5031654,63.2188385 C80.5031654,63.4949808 80.2793078,63.7188385 80.0031654,63.7188385 C79.7270231,63.7188385 79.5031654,63.4949808 79.5031654,63.2188385 L79.5031654,58.2188385 C79.5031654,57.9426961 79.7270231,57.7188385 80.0031654,57.7188385 C80.2793078,57.7188385 80.5031654,57.9426961 80.5031654,58.2188385 L80.5031654,63.2188385 Z M80.5031654,53.2188385 C80.5031654,53.4949808 80.2793078,53.7188385 80.0031654,53.7188385 C79.7270231,53.7188385 79.5031654,53.4949808 79.5031654,53.2188385 L79.5031654,48.2188385 C79.5031654,47.9426961 79.7270231,47.7188385 80.0031654,47.7188385 C80.2793078,47.7188385 80.5031654,47.9426961 80.5031654,48.2188385 L80.5031654,53.2188385 Z M80.5031654,43.2188385 C80.5031654,43.4949808 80.2793078,43.7188385 80.0031654,43.7188385 C79.7270231,43.7188385 79.5031654,43.4949808 79.5031654,43.2188385 L79.5031654,38.2188385 C79.5031654,37.9426961 79.7270231,37.7188385 80.0031654,37.7188385 C80.2793078,37.7188385 80.5031654,37.9426961 80.5031654,38.2188385 L80.5031654,43.2188385 Z M80.5031654,33.2188385 C80.5031654,33.4949808 80.2793078,33.7188385 80.0031654,33.7188385 C79.7270231,33.7188385 79.5031654,33.4949808 79.5031654,33.2188385 L79.5031654,28.2188385 C79.5031654,27.9426961 79.7270231,27.7188385 80.0031654,27.7188385 C80.2793078,27.7188385 80.5031654,27.9426961 80.5031654,28.2188385 L80.5031654,33.2188385 Z M80.5031654,23.2188385 C80.5031654,23.4949808 80.2793078,23.7188385 80.0031654,23.7188385 C79.7270231,23.7188385 79.5031654,23.4949808 79.5031654,23.2188385 L79.5031654,20.0027829 C79.5031654,19.3906607 79.5299797,18.7817399 79.583293,18.1771883 C79.6075509,17.9021135 79.850208,17.6987862 80.1252828,17.7230441 C80.4003577,17.747302 80.603685,17.9899591 80.5794271,18.2650339 C80.528689,18.8403837 80.5031654,19.4199943 80.5031654,20.0027829 L80.5031654,23.2188385 Z M81.6182349,13.4837618 C81.5260177,13.7440512 81.2402546,13.8803007 80.9799651,13.7880834 C80.7196757,13.6958662 80.5834262,13.4101031 80.6756434,13.1498137 C81.2491868,11.5309481 82.0244691,9.99357743 82.9808604,8.57131016 C83.1349515,8.34215839 83.4456313,8.28130971 83.6747831,8.43540084 C83.9039348,8.58949197 83.9647835,8.90017173 83.8106924,9.1293235 C82.9009875,10.4821624 82.1636509,11.9442876 81.6182349,13.4837618 Z M87.0621895,5.41051442 C86.8556864,5.59384759 86.5396616,5.5750646 86.3563284,5.36856143 C86.1729952,5.16205826 86.1917782,4.84603346 86.3982814,4.66270029 C87.6805436,3.52431002 89.1005388,2.54980618 90.6249749,1.76445444 C90.8704561,1.63798862 91.1719787,1.73446962 91.2984445,1.9799508 C91.4249104,2.22543197 91.3284293,2.52695459 91.0829482,2.65342041 C89.6329581,3.40041942 88.2821179,4.32746405 87.0621895,5.41051442 Z M95.6384075,0.989451362 C95.3691988,1.0509438 95.1011126,0.882556549 95.0396202,0.61334791 C94.9781278,0.344139271 95.146515,0.076053079 95.4157237,0.0145606413 C96.8864009,-0.321370356 98.3985134,-0.4949146 99.934272,-0.499892506 L100.564712,-0.499999993 C100.840855,-0.500047073 101.064751,-0.276227618 101.064798,-8.52471018e-05 C101.064845,0.276057124 100.841025,0.499952912 100.564883,0.499999993 L99.9359786,0.500104857 C98.4757285,0.50484026 97.0372079,0.669938403 95.6384075,0.989451362 Z M105.564798,0.5 C105.288655,0.5 105.064798,0.276142375 105.064798,0 C105.064798,-0.276142375 105.288655,-0.5 105.564798,-0.5 L110.564798,-0.5 C110.84094,-0.5 111.064798,-0.276142375 111.064798,0 C111.064798,0.276142375 110.84094,0.5 110.564798,0.5 L105.564798,0.5 Z M115.564798,0.5 C115.288655,0.5 115.064798,0.276142375 115.064798,0 C115.064798,-0.276142375 115.288655,-0.5 115.564798,-0.5 L120.564798,-0.5 C120.84094,-0.5 121.064798,-0.276142375 121.064798,0 C121.064798,0.276142375 120.84094,0.5 120.564798,0.5 L115.564798,0.5 Z M125.564798,0.5 C125.288655,0.5 125.064798,0.276142375 125.064798,0 C125.064798,-0.276142375 125.288655,-0.5 125.564798,-0.5 L130.564798,-0.5 C130.84094,-0.5 131.064798,-0.276142375 131.064798,0 C131.064798,0.276142375 130.84094,0.5 130.564798,0.5 L125.564798,0.5 Z M135.564798,0.5 C135.288655,0.5 135.064798,0.276142375 135.064798,0 C135.064798,-0.276142375 135.288655,-0.5 135.564798,-0.5 L140.564798,-0.5 C140.84094,-0.5 141.064798,-0.276142375 141.064798,0 C141.064798,0.276142375 140.84094,0.5 140.564798,0.5 L135.564798,0.5 Z M145.564798,0.5 C145.288655,0.5 145.064798,0.276142375 145.064798,0 C145.064798,-0.276142375 145.288655,-0.5 145.564798,-0.5 L150.564798,-0.5 C150.84094,-0.5 151.064798,-0.276142375 151.064798,0 C151.064798,0.276142375 150.84094,0.5 150.564798,0.5 L145.564798,0.5 Z M155.564798,0.5 C155.288655,0.5 155.064798,0.276142375 155.064798,0 C155.064798,-0.276142375 155.288655,-0.5 155.564798,-0.5 L158,-0.5 C158.276142,-0.5 158.5,-0.276142375 158.5,0 C158.5,0.276142375 158.276142,0.5 158,0.5 L155.564798,0.5 Z"></path>
                    </g>
                </g>
                <g id="path/U" transform="translate(574.500000, 63.500000) rotate(90.000000) translate(-574.500000, -63.500000) translate(538.000000, -48.000000)" fill="#222222" fill-rule="nonzero">
                    <path id="Path" d="M67.8462949,-1.5 L56.837163,-7.69263669 C56.1151261,-8.0987824 55.8590458,-9.01335504 56.2651915,-9.73539186 C56.6713372,-10.4574287 57.5859099,-10.713509 58.3079467,-10.3073633 L74.3079467,-1.30736331 C75.3274242,-0.7339072 75.3274242,0.7339072 74.3079467,1.30736331 L58.3079467,10.3073633 C57.5859099,10.713509 56.6713372,10.4574287 56.2651915,9.73539186 C55.8590458,9.01335504 56.1151261,8.0987824 56.837163,7.69263669 L67.8462949,1.5 L19.9988378,1.5 C9.78194827,1.5 1.5,9.78184175 1.5,19.9983071 L1.5,203.001696 C1.5,213.22113 9.78152395,221.500003 20.0013228,221.500003 L72.5379747,221.500003 C73.3664018,221.500003 74.0379747,222.171576 74.0379747,223.000003 C74.0379747,223.828431 73.3664018,224.500003 72.5379747,224.500003 L20.0013228,224.500003 C8.1248846,224.500003 -1.5,214.878199 -1.5,203.001696 L-1.5,19.9983071 C-1.5,8.12497886 8.12510266,-1.5 19.9988378,-1.5 L67.8462949,-1.5 Z"></path>
                </g>
                <g id="path/U-Copy" transform="translate(574.500000, 299.500000) rotate(270.000000) translate(-574.500000, -299.500000) translate(538.000000, 188.000000)" fill="#222222" fill-rule="nonzero">
                    <path id="Path" d="M67.8462949,-1.5 L56.837163,-7.69263669 C56.1151261,-8.0987824 55.8590458,-9.01335504 56.2651915,-9.73539186 C56.6713372,-10.4574287 57.5859099,-10.713509 58.3079467,-10.3073633 L74.3079467,-1.30736331 C75.3274242,-0.7339072 75.3274242,0.7339072 74.3079467,1.30736331 L58.3079467,10.3073633 C57.5859099,10.713509 56.6713372,10.4574287 56.2651915,9.73539186 C55.8590458,9.01335504 56.1151261,8.0987824 56.837163,7.69263669 L67.8462949,1.5 L19.9988378,1.5 C9.78194827,1.5 1.5,9.78184175 1.5,19.9983071 L1.5,203.001696 C1.5,213.22113 9.78152395,221.500003 20.0013228,221.500003 L72.5379747,221.500003 C73.3664018,221.500003 74.0379747,222.171576 74.0379747,223.000003 C74.0379747,223.828431 73.3664018,224.500003 72.5379747,224.500003 L20.0013228,224.500003 C8.1248846,224.500003 -1.5,214.878199 -1.5,203.001696 L-1.5,19.9983071 C-1.5,8.12497886 8.12510266,-1.5 19.9988378,-1.5 L67.8462949,-1.5 Z"></path>
                </g>
                <text id="action:-UserAction" font-family="Menlo-Regular, Menlo" font-size="12" font-weight="normal" fill="#000000">
                    <tspan x="517" y="11">action: UserAction</tspan>
                </text>
                <text id="{-user,-messages-}:" font-family="Menlo-Regular, Menlo" font-size="12" font-weight="normal" fill="#000000">
                    <tspan x="492" y="360">{ user, messages }: Props</tspan>
                </text>
            </g>
            <polygon id="Rectangle" points="0 0 1189 0 1305 0 1305 810 0 810"></polygon>
        </g>
    </g>
</svg>
